<?xml version="1.0" encoding="utf-8"?>
<!-- Svg Vector Icons : http://www.onlinewebfonts.com/icon -->
<!DOCTYPE svg PUBLIC "-//W3C//DTD SVG 1.1//EN" "http://www.w3.org/Graphics/SVG/1.1/DTD/svg11.dtd">
<svg version="1.1" xmlns="http://www.w3.org/2000/svg" xmlns:xlink="http://www.w3.org/1999/xlink" x="0px" y="0px" viewBox="0 0 256 256" enable-background="new 0 0 256 256" xml:space="preserve">
<metadata> Svg Vector Icons : http://www.onlinewebfonts.com/icon </metadata>
<g><g><path fill="#000000" d="M219.9,194.3c0.8,2.4,1.4,5.4,1.8,9.1c0.4,3.7,0.6,7.4,0.6,11.2c0,3.8-0.3,7.3-0.8,10.6c-0.6,3.3-1.4,5.8-2.5,7.5c-0.8,1.1-2.9,2.2-6.5,3.3c-3.5,1.1-7.9,2.2-13.1,3.2c-5.2,1-11,1.9-17.4,2.7c-6.5,0.8-12.9,1.5-19.3,2.1c-6.5,0.6-12.7,1.1-18.7,1.4c-6,0.3-11.4,0.5-15.9,0.5c-4.6,0-9.8-0.2-15.8-0.6c-6-0.4-12.1-0.9-18.5-1.4c-6.4-0.6-12.6-1.2-18.9-1.9s-11.9-1.4-17.1-2.2c-5.2-0.8-9.6-1.6-13.1-2.4c-3.5-0.8-5.8-1.6-6.7-2.4c-1.6-1.3-2.8-5.1-3.7-11.6c-0.9-6.5-0.6-14.8,0.8-25c0.9-5.8,3.3-10.2,7.1-13.2c3.8-3,8.2-5.4,13.2-7.2c5-1.8,10.3-3.4,15.7-4.8c5.4-1.4,10.3-3.5,14.5-6.1c3.3-2,5.8-4,7.5-5.9c1.7-1.9,3-3.8,3.8-5.7c0.8-1.9,1.2-3.9,1.2-5.9s-0.1-4.3-0.2-6.8c-0.3-3.6-1.6-6.5-3.8-8.6c-2.2-2.1-4.6-4.3-7.1-6.5c-1.3-1.1-2.4-2.6-3.4-4.6c-1-2-1.9-4-2.7-6c-0.8-2.4-1.6-4.9-2.4-7.5c-1.4-0.2-2.8-0.6-4.2-1.4c-1.3-0.8-2.5-1.9-3.8-3.4s-2.3-3.6-3.1-6.2c-0.8-2.7-1-5.1-0.6-7.3c0.4-2.2,1.1-4.1,2-5.7c0.9-1.7,2.3-3.4,4-5c0-6,0.3-11.9,0.9-17.9c0.6-5,1.7-10.4,3.3-16.2c1.6-5.7,4-10.9,7.3-15.4c3-4.4,6.3-8,9.9-10.7c3.6-2.7,7.3-4.9,11.2-6.5c3.9-1.6,7.7-2.6,11.4-3.2c3.8-0.6,7.5-0.8,11.1-0.8c4.6,0,8.9,0.5,13.1,1.5c4.2,1,8,2.4,11.6,4.1c3.5,1.7,6.7,3.7,9.5,5.9c2.8,2.2,5.2,4.4,7.1,6.6c3.9,5,6.9,10.6,8.8,16.7s3.3,11.9,4.1,17.2c0.8,6.3,1.1,12.6,0.9,18.9c1.4,0.8,2.6,1.8,3.5,3.1c0.8,1.1,1.5,2.5,2.1,4.2c0.6,1.7,0.8,3.9,0.5,6.4c-0.3,3.5-1.1,6.1-2.4,8s-2.6,3.4-4,4.5c-1.7,1.3-3.5,2.1-5.4,2.6c-0.8,2.7-1.6,5.2-2.4,7.5c-0.8,2-1.7,4-2.7,6c-1,2-2.2,3.5-3.4,4.6c-2.8,2.4-5.2,4.4-7.1,6c-1.9,1.7-3.2,4.4-3.8,8.4c-0.5,2.4-0.7,4.7-0.6,7.2c0.1,2.4,0.7,4.9,1.9,7.3c1.2,2.4,3,4.7,5.4,7c2.4,2.2,5.9,4.2,10.3,5.9c3.8,1.6,8,3,12.6,4.2c4.6,1.3,9.1,2.7,13.4,4.4c4.3,1.7,8.2,3.7,11.6,6.1C216.1,186.8,218.5,190.1,219.9,194.3L219.9,194.3z M128.7,143c2.8,0,5.3-1,7.3-3.1c2-2,3.1-4.6,3.1-7.5c0-3-1-5.5-3.1-7.5c-2-2-4.5-3.1-7.3-3.1c-3,0-5.5,1-7.5,3.1c-2,2-3.1,4.6-3.1,7.5c0,3,1,5.5,3.1,7.5C123.2,141.9,125.7,143,128.7,143z M137.4,100.3c-0.2-1.9,0.9-3.9,3.3-6c2.4-2.1,5-4.4,8-7c3-2.5,5.7-5.4,8.3-8.6c2.5-3.2,3.9-6.9,4.2-11c0.2-4.4-0.3-8.6-1.4-12.5c-1.1-3.9-3-7.3-5.7-10.3c-2.7-2.9-6.1-5.2-10.3-6.8c-4.2-1.7-9.1-2.5-14.7-2.5c-6.9,0-12.7,1.3-17.4,3.8c-4.7,2.5-8.5,5.5-11.3,9c-2.8,3.5-4.8,7.1-5.9,11c-1.1,3.9-1.7,7-1.7,9.6c0.2,3,1.1,5.2,2.8,6.5c1.7,1.3,3.7,2,5.8,2.1c2.1,0.1,4-0.5,5.8-1.8c1.7-1.3,2.6-3,2.6-5.2c0-1.4,0.4-3.1,1.3-5.1s2-3.9,3.5-5.8s3.3-3.5,5.4-4.7c2.1-1.3,4.4-1.9,7-1.9c5.2,0,9.3,1.3,12.4,3.9c3.1,2.6,4.5,5.9,4.4,9.8c0,3-1.2,5.6-3.7,7.9c-2.4,2.3-5.1,4.6-8,7c-2.9,2.4-5.6,4.9-8.1,7.5c-2.5,2.7-3.9,5.8-4,9.4v6.4c0.2,1.7,1,3.4,2.6,5c1.6,1.6,3.7,2.4,6.4,2.6c2.7-0.2,4.7-1,6.2-2.6c1.5-1.6,2.2-3.5,2.2-5.7L137.4,100.3L137.4,100.3z"/></g></g>
</svg>