<?xml version="1.0" standalone="no"?>
<!DOCTYPE svg PUBLIC "-//W3C//DTD SVG 20010904//EN"
 "http://www.w3.org/TR/2001/REC-SVG-20010904/DTD/svg10.dtd">
<svg version="1.0" xmlns="http://www.w3.org/2000/svg"
 width="854.000000pt" height="252.000000pt" viewBox="0 0 854.000000 252.000000"
 preserveAspectRatio="xMidYMid meet">

<g transform="translate(0.000000,252.000000) scale(0.100000,-0.100000)"
fill="#FFFFFF" stroke="none">
<path d="M774 2214 l-291 -125 -12 -40 c-7 -23 -11 -43 -9 -45 3 -2 106 43
231 101 125 57 260 118 301 135 52 22 76 38 85 56 14 32 14 44 -1 43 -7 0
-144 -57 -304 -125z"/>
<path d="M1271 2277 c-11 -58 -11 -66 7 -98 11 -19 28 -59 37 -89 10 -30 40
-102 67 -160 59 -126 59 -124 -54 -214 -127 -102 -296 -185 -468 -232 -98 -26
-289 -25 -356 2 -134 54 -215 171 -215 309 -1 71 26 193 47 217 16 17 47 108
37 108 -3 0 -14 -11 -25 -25 -55 -71 -78 22 -38 159 11 38 18 72 15 74 -7 7
-53 -101 -65 -151 -18 -78 -13 -135 15 -162 23 -24 23 -27 11 -63 -18 -51 -36
-168 -36 -234 0 -154 93 -304 229 -371 65 -31 68 -32 201 -32 125 1 142 3 227
33 233 80 470 240 538 363 28 50 30 62 30 154 0 99 -1 101 -47 199 -27 54 -48
102 -48 107 0 5 13 6 29 3 16 -4 32 -1 36 5 7 13 -131 161 -150 161 -6 0 -17
-28 -24 -63z"/>
<path d="M1768 2323 c-23 -27 -34 -53 -47 -113 -20 -87 -22 -88 -42 -25 -19
64 -68 125 -99 125 -21 0 -50 -41 -50 -69 0 -26 38 -52 65 -45 25 6 35 -12 70
-120 22 -68 23 -69 38 -45 9 13 21 53 27 89 13 71 43 150 58 150 5 0 15 -7 22
-15 18 -22 37 -18 42 9 11 58 -49 99 -84 59z"/>
<path d="M2021 2282 c-42 -84 -64 -167 -65 -249 -1 -81 17 -113 64 -113 34 0
54 22 74 83 24 70 20 88 -9 46 -30 -45 -48 -53 -69 -30 -25 27 -20 113 13 224
16 53 27 97 25 97 -2 0 -17 -26 -33 -58z"/>
<path d="M2451 2315 c-10 -14 -27 -60 -37 -103 -21 -93 -29 -105 -39 -56 -13
74 -71 154 -111 154 -15 0 -54 -47 -54 -66 0 -26 40 -56 67 -51 22 4 28 -1 48
-47 44 -100 49 -125 30 -146 -9 -10 -19 -38 -22 -62 l-6 -43 24 21 c13 12 30
19 37 17 17 -7 15 -23 -4 -23 -8 0 -29 -13 -45 -29 -36 -37 -38 -85 -8 -227
11 -55 23 -143 26 -196 3 -54 9 -95 13 -93 27 17 16 230 -19 363 l-19 73 31
20 c18 10 37 19 42 19 6 0 26 5 47 10 41 12 66 57 48 90 -9 17 -51 55 -83 75
-15 9 -14 21 11 119 30 121 46 143 82 111 18 -16 23 -17 30 -5 24 38 -4 100
-45 100 -13 0 -32 -11 -44 -25z"/>
<path d="M2650 2281 c-19 -53 -21 -66 -11 -108 9 -40 44 -519 68 -931 l6 -103
-29 6 c-64 15 -147 39 -309 92 -169 54 -171 55 -260 48 -131 -9 -132 -9 -165
-76 -17 -32 -30 -65 -30 -72 0 -23 235 -38 257 -16 8 8 51 -1 157 -32 80 -23
146 -45 146 -49 0 -10 -250 -87 -355 -110 -115 -24 -288 -39 -357 -30 -59 8
-128 34 -128 48 0 5 40 27 89 50 88 39 91 42 120 100 28 56 29 61 13 75 -25
23 -120 63 -190 82 -118 30 -349 13 -457 -34 -35 -16 -44 -27 -69 -85 -16 -37
-26 -69 -23 -73 3 -3 20 0 38 6 69 24 139 4 213 -61 l39 -34 -102 -42 c-56
-23 -105 -42 -109 -42 -5 0 -16 16 -25 36 -25 52 -104 131 -143 144 -29 10
-41 9 -79 -10 -76 -37 -125 -119 -125 -209 0 -99 67 -138 222 -128 77 5 87 4
91 -13 8 -32 -24 -78 -112 -163 -274 -259 -543 -347 -672 -218 -65 64 -74 145
-35 307 21 85 30 106 60 136 33 33 67 116 65 162 0 20 -1 20 -12 2 -26 -41
-60 -76 -73 -76 -8 0 -24 10 -35 21 -20 20 -21 29 -16 108 3 54 17 124 36 188
39 130 38 144 -4 63 -63 -120 -88 -212 -89 -332 -1 -99 1 -108 23 -132 14 -14
31 -26 39 -26 10 0 12 -5 7 -17 -55 -127 -79 -329 -52 -424 18 -61 63 -129
103 -155 150 -99 405 5 661 269 98 102 133 159 161 263 l17 67 77 33 c43 18
108 47 144 64 l67 31 56 -44 c104 -82 131 -91 261 -91 151 -1 231 17 520 114
218 73 378 116 389 104 3 -2 5 -108 5 -234 1 -127 2 -230 3 -230 2 0 11 17 21
38 35 68 54 164 59 300 l6 132 76 -6 76 -6 34 62 c18 34 31 63 30 64 -2 2 -56
12 -119 22 l-115 19 -32 430 c-17 237 -32 444 -32 462 l-1 32 25 -24 c33 -34
49 -32 42 4 -11 51 -111 304 -123 308 -6 2 -21 -23 -34 -56z m-1034 -1162 c24
-6 44 -15 44 -18 0 -4 -27 -20 -59 -36 l-60 -28 -33 29 c-18 16 -45 37 -58 46
-25 17 -24 17 48 17 40 1 93 -4 118 -10z m-608 -193 c15 -8 35 -23 45 -34 19
-20 18 -21 -26 -27 -59 -9 -117 9 -117 36 0 34 54 48 98 25z"/>
<path d="M3078 2323 c-25 -29 -36 -56 -54 -134 l-17 -74 -13 54 c-20 76 -74
147 -109 139 -9 -1 -25 -17 -36 -35 l-21 -32 26 -26 c19 -19 32 -24 49 -20 22
6 27 1 49 -57 14 -35 29 -78 33 -97 11 -52 30 -22 59 98 14 58 32 112 41 120
13 13 17 13 34 -3 25 -22 41 -13 41 22 -1 34 -22 62 -47 62 -11 0 -27 -8 -35
-17z"/>
<path d="M3276 2318 c-26 -36 -21 -55 13 -50 57 8 46 -39 -31 -131 -49 -58
-22 -51 38 11 61 62 92 150 62 180 -20 20 -65 14 -82 -10z"/>
<path d="M3880 2291 c-63 -27 -308 -128 -545 -226 -236 -97 -435 -181 -442
-187 -18 -14 -45 -101 -30 -95 7 3 62 28 122 55 61 27 236 102 390 166 638
266 616 256 631 292 8 18 14 36 14 39 0 11 -30 2 -140 -44z"/>
<path d="M4311 2314 c-22 -28 -47 -101 -58 -167 -7 -45 -15 -39 -32 23 -18 62
-47 108 -81 125 -42 22 -47 19 -70 -25 l-21 -40 26 -26 c20 -19 32 -24 51 -20
23 6 27 1 50 -51 15 -32 31 -79 37 -105 7 -27 15 -48 20 -48 11 0 26 43 49
145 20 88 40 135 58 135 4 0 15 -7 24 -15 22 -22 35 -18 42 12 17 66 -54 109
-95 57z"/>
<path d="M4520 2283 c-19 -50 -20 -65 -12 -108 6 -27 13 -102 17 -165 6 -114
46 -698 65 -961 13 -179 12 -269 -3 -299 -30 -61 -175 -93 -229 -50 -30 23
-38 55 -28 110 4 22 4 43 -1 45 -4 3 -36 -27 -71 -65 -72 -81 -132 -117 -220
-131 -128 -21 -206 19 -279 142 -64 107 -112 121 -197 59 -56 -41 -122 -138
-184 -271 -74 -157 -84 -174 -114 -198 -54 -43 -134 -13 -165 60 -12 30 -11
33 17 56 175 146 199 185 198 323 0 87 0 87 -81 278 -4 10 1 13 18 11 13 -2
24 1 25 6 1 6 -30 44 -68 85 -77 85 -82 84 -93 -11 -5 -42 -3 -64 9 -87 8 -16
29 -65 45 -109 16 -43 44 -110 62 -150 31 -69 32 -73 15 -97 -17 -27 -156
-136 -173 -136 -10 0 -9 93 2 203 4 33 2 57 -4 57 -17 0 -32 -63 -43 -181
l-11 -116 -36 -23 c-85 -56 -339 -178 -611 -295 -162 -70 -299 -131 -305 -137
-16 -17 84 -2 255 38 85 20 198 47 251 59 110 26 244 89 406 192 56 35 73 40
73 21 0 -27 59 -134 89 -163 26 -24 41 -30 76 -30 72 0 109 46 190 239 65 156
130 235 213 261 30 9 62 -20 104 -94 69 -120 139 -159 267 -148 89 7 151 39
219 111 l52 55 16 -39 c19 -48 61 -85 113 -101 114 -34 217 59 267 241 26 94
22 300 -15 799 -17 227 -31 427 -31 444 l0 30 23 -21 c24 -23 47 -29 47 -12 0
9 -62 184 -98 275 -11 27 -24 51 -30 53 -6 2 -20 -23 -32 -55z"/>
<path d="M5037 2333 c-3 -5 -12 -31 -20 -60 -15 -48 -14 -56 8 -141 28 -107
42 -228 50 -417 3 -77 7 -189 10 -250 3 -60 7 -193 10 -295 8 -245 22 -436 36
-485 19 -71 55 -121 102 -144 75 -36 152 -25 204 31 68 73 76 269 16 379 -30
57 -47 61 -62 18 -19 -54 -13 -97 21 -158 52 -94 26 -134 -86 -134 -55 0 -61
2 -92 35 -46 51 -52 95 -64 473 -21 685 -35 887 -71 1027 -28 111 -46 147 -62
121z"/>
<path d="M5228 2315 c-10 -22 -7 -29 27 -66 73 -81 98 -169 82 -289 -7 -53 -7
-54 8 -28 40 70 38 224 -4 307 -22 43 -74 101 -90 101 -6 0 -16 -11 -23 -25z"/>
<path d="M5531 2277 c-17 -50 -20 -69 -12 -90 6 -15 15 -109 21 -210 6 -100
22 -337 35 -527 45 -636 47 -682 43 -812 -4 -145 4 -158 39 -57 29 84 43 175
43 277 0 74 -45 745 -70 1032 -5 63 -10 126 -10 139 l0 25 30 -29 c16 -16 33
-25 37 -21 13 13 -102 326 -123 333 -5 2 -20 -25 -33 -60z"/>
<path d="M6239 2308 c-13 -17 -32 -72 -44 -122 l-21 -90 -18 65 c-20 73 -56
126 -94 140 -23 9 -30 7 -49 -18 -13 -15 -23 -38 -23 -50 0 -27 42 -57 68 -49
14 5 24 -1 35 -17 13 -20 47 -115 64 -177 9 -30 32 21 54 119 32 145 50 171
91 134 37 -33 58 38 23 77 -27 30 -60 25 -86 -12z"/>
<path d="M6910 2315 c-13 -24 -11 -28 23 -63 73 -75 102 -178 83 -297 -11 -70
9 -47 30 34 22 86 12 171 -27 251 -27 53 -69 100 -89 100 -3 0 -13 -11 -20
-25z"/>
<path d="M7350 2308 c-11 -18 -25 -59 -31 -91 l-12 -58 -23 56 c-12 31 -30 66
-40 76 -25 28 -66 21 -78 -13 -12 -34 6 -58 44 -58 30 0 44 -25 70 -120 11
-40 13 -43 25 -27 7 10 18 45 25 80 6 34 18 77 26 96 14 33 14 33 39 17 24
-16 26 -16 34 6 11 29 -8 62 -37 66 -15 2 -27 -6 -42 -30z"/>
<path d="M7584 2325 c-29 -75 -31 -99 -13 -170 36 -139 49 -273 64 -695 18
-496 31 -719 46 -775 29 -107 94 -164 187 -165 52 0 91 19 126 60 35 42 49
100 49 202 0 78 -3 94 -32 152 -18 37 -38 66 -46 66 -7 0 -18 -14 -24 -31 -19
-54 -13 -100 19 -154 56 -94 29 -140 -81 -139 -65 0 -89 15 -119 74 -26 52
-29 81 -45 590 -21 643 -37 813 -86 945 -21 55 -35 68 -45 40z"/>
<path d="M7780 2315 c-13 -24 -11 -28 22 -63 70 -72 107 -184 88 -265 -5 -23
-9 -51 -9 -62 0 -36 29 29 40 92 19 103 -25 253 -89 304 -32 25 -36 24 -52 -6z"/>
<path d="M8097 2313 c-29 -57 -38 -99 -27 -127 5 -15 12 -71 16 -124 3 -53 21
-326 41 -607 24 -333 37 -585 37 -727 1 -141 5 -217 11 -215 6 2 23 41 39 88
44 131 44 235 2 824 -20 275 -39 529 -42 565 l-6 65 29 -27 c60 -57 58 -31
-14 160 -32 83 -61 152 -65 152 -4 0 -14 -12 -21 -27z"/>
<path d="M491 2303 c-22 -48 -25 -117 -7 -132 15 -12 19 -12 30 0 8 8 17 25
21 39 7 24 7 24 -8 5 -12 -16 -18 -17 -28 -8 -10 10 -10 23 -1 64 14 59 11 72
-7 32z"/>
<path d="M4760 2274 c-21 -51 -22 -62 -12 -118 6 -33 14 -113 17 -176 3 -63
22 -340 42 -615 20 -278 36 -583 37 -687 0 -104 2 -188 4 -188 8 0 41 92 55
155 33 144 33 154 -33 1040 -11 149 -20 288 -20 309 l0 39 23 -21 c30 -28 50
-29 43 -2 -3 11 -9 30 -12 43 -16 55 -106 277 -114 277 -4 0 -18 -25 -30 -56z"/>
<path d="M6439 2215 c-26 -59 -37 -158 -19 -180 28 -33 63 -13 80 46 l9 32
-24 -23 c-13 -12 -28 -19 -34 -15 -15 9 -14 73 4 130 19 65 11 70 -16 10z"/>
<path d="M5812 2144 c-11 -23 -8 -30 27 -72 74 -87 97 -175 76 -291 -10 -58 8
-47 26 16 18 63 16 167 -5 231 -15 46 -87 142 -105 142 -4 0 -13 -12 -19 -26z"/>
<path d="M6628 2159 c-11 -6 -18 -22 -18 -41 0 -17 -5 -48 -11 -68 -16 -53 -5
-88 32 -104 l30 -13 -53 -40 c-29 -23 -105 -71 -167 -108 -63 -37 -124 -73
-135 -81 -36 -25 4 -16 98 20 105 42 200 102 256 162 40 44 42 44 90 38 l50
-7 15 36 c24 58 19 83 -27 133 -41 44 -103 84 -130 84 -7 0 -21 -5 -30 -11z
m56 -105 c19 -49 -8 -70 -49 -40 -19 14 -19 15 -1 35 23 25 42 27 50 5z m106
-62 c0 -9 -6 -12 -16 -8 -9 3 -25 6 -35 6 -19 0 -21 16 -10 69 2 11 61 -54 61
-67z"/>
<path d="M3906 2058 c-7 -13 -19 -48 -26 -78 l-13 -54 -13 43 c-14 48 -49 91
-74 91 -9 0 -23 -11 -30 -25 -16 -30 0 -55 36 -55 18 0 26 -10 43 -55 12 -31
21 -60 21 -65 0 -6 4 -10 10 -10 9 0 16 22 40 115 15 59 25 72 44 56 18 -15
36 -7 36 18 0 42 -51 55 -74 19z"/>
<path d="M906 2011 c-23 -25 -52 -104 -61 -164 -4 -26 -10 -47 -14 -47 -3 0
-14 27 -23 59 -21 69 -72 131 -110 131 -18 0 -29 -9 -41 -36 -25 -52 -3 -84
59 -84 21 0 29 -10 49 -55 14 -30 30 -75 36 -100 6 -25 15 -45 19 -45 12 0 36
72 55 162 9 43 24 87 33 98 l17 21 27 -21 c27 -20 27 -20 37 -1 16 29 14 45
-10 75 -24 31 -49 33 -73 7z"/>
<path d="M1105 1970 c-14 -27 -25 -55 -25 -62 1 -13 103 -88 120 -88 11 0 47
59 55 92 6 24 1 30 -54 67 -33 23 -62 41 -65 41 -3 0 -17 -22 -31 -50z"/>
<path d="M6990 1839 c-239 -99 -441 -185 -447 -192 -7 -7 -15 -27 -19 -45 l-7
-32 60 29 c33 17 233 102 444 190 234 98 391 169 402 182 17 22 23 49 10 49
-5 -1 -204 -82 -443 -181z"/>
<path d="M3570 1930 c-44 -97 -60 -162 -60 -250 0 -84 14 -115 55 -122 37 -7
61 15 85 79 27 73 23 101 -8 51 -47 -76 -101 -31 -89 74 4 28 18 91 33 140 14
49 24 91 21 94 -2 2 -19 -28 -37 -66z"/>
<path d="M4375 1945 c-16 -7 -149 -63 -295 -125 -146 -62 -268 -117 -272 -124
-9 -13 -29 -79 -25 -83 2 -1 48 19 103 46 54 26 190 88 301 137 170 75 204 93
214 116 16 39 9 49 -26 33z"/>
<path d="M499 1878 c-30 -70 -38 -178 -14 -201 9 -9 23 -17 30 -17 18 0 42 36
50 75 l7 30 -20 -24 c-47 -58 -69 19 -36 128 20 70 12 74 -17 9z"/>
<path d="M1665 1879 c-43 -38 -65 -77 -65 -118 0 -22 10 -38 40 -64 l40 -34
-28 -25 c-56 -51 -133 -99 -342 -213 -237 -130 -225 -123 -218 -130 7 -8 196
59 294 105 113 52 206 115 279 189 l59 61 24 -23 c23 -22 24 -22 38 -2 29 39
29 65 0 89 -26 21 -26 22 -15 77 22 107 -32 152 -106 88z m55 -75 c6 -14 6
-32 2 -40 -7 -13 -12 -12 -35 6 -29 23 -35 45 -14 53 26 11 38 6 47 -19z"/>
<path d="M5340 1841 c-104 -48 -125 -62 -131 -84 -4 -15 -4 -27 0 -27 14 0
266 132 273 143 26 40 3 35 -142 -32z"/>
<path d="M7893 1843 c-103 -47 -124 -60 -132 -84 -5 -16 -7 -29 -3 -29 16 0
266 130 273 142 26 41 7 37 -138 -29z"/>
<path d="M7407 1813 c-49 -97 -68 -246 -35 -279 25 -25 61 -11 81 31 9 20 17
45 17 57 0 19 -1 19 -21 -6 -56 -71 -79 17 -38 149 22 71 20 96 -4 48z"/>
<path d="M3334 1783 c-24 -26 -49 -94 -61 -165 -6 -38 -23 -53 -23 -20 0 9
-13 45 -29 78 -45 96 -96 120 -131 62 -25 -42 -25 -44 6 -74 19 -20 31 -24 50
-20 22 6 27 1 50 -50 13 -31 30 -76 36 -100 7 -24 16 -44 20 -44 13 0 28 37
43 112 22 109 43 158 66 158 11 0 22 -7 25 -15 14 -34 44 -9 44 36 0 21 -42
69 -60 69 -6 0 -22 -12 -36 -27z"/>
<path d="M2121 1744 c-20 -26 -30 -54 -50 -142 -12 -58 -17 -60 -26 -15 -9 54
-51 120 -85 138 -38 20 -35 20 -60 -21 l-22 -35 23 -25 c16 -18 31 -24 48 -21
20 4 27 -3 51 -57 15 -33 31 -76 35 -93 3 -18 10 -33 15 -33 10 0 26 43 40
110 16 77 40 140 53 140 6 0 18 -7 28 -16 10 -9 23 -13 28 -9 18 10 13 70 -7
88 -26 24 -47 21 -71 -9z"/>
<path d="M5970 1666 c-181 -86 -216 -106 -224 -129 -5 -15 -7 -29 -4 -32 3 -4
51 17 107 44 55 28 102 51 105 51 2 0 -8 -28 -22 -62 -33 -83 -43 -206 -17
-232 36 -36 83 1 99 79 l6 30 -21 -27 c-25 -34 -44 -35 -60 -7 -14 27 -6 92
21 175 l21 61 100 48 c92 44 119 66 119 94 0 6 -3 11 -7 10 -5 0 -105 -47
-223 -103z"/>
<path d="M7133 1709 c-19 -19 -15 -68 8 -118 15 -35 17 -46 7 -53 -31 -19 -53
7 -61 69 -14 120 -53 138 -42 19 8 -78 -4 -106 -45 -106 -24 0 -30 19 -30 96
0 51 -3 64 -15 64 -24 0 -42 -47 -27 -71 7 -10 12 -41 12 -69 0 -37 5 -55 20
-70 28 -28 47 -25 80 10 27 29 28 29 45 10 24 -27 61 -25 79 3 26 41 28 81 7
138 -11 30 -21 62 -23 72 -2 15 -5 16 -15 6z"/>
<path d="M5431 1665 c-10 -23 -9 -38 4 -75 29 -78 21 -106 -19 -77 -13 9 -22
34 -27 76 -5 35 -13 70 -18 78 -7 14 -10 13 -20 -5 -8 -15 -8 -34 0 -72 9 -43
8 -55 -5 -75 -35 -53 -83 -16 -73 56 6 43 -1 79 -14 79 -5 0 -16 -11 -25 -26
-13 -19 -14 -28 -5 -37 6 -6 11 -30 11 -53 0 -60 18 -103 45 -110 28 -7 61 9
75 36 10 19 11 19 30 0 32 -32 68 -26 86 15 19 47 18 70 -10 151 l-24 69 -11
-30z"/>
<path d="M7980 1665 c-9 -24 -8 -39 10 -88 24 -65 18 -87 -19 -68 -21 12 -26
24 -36 101 -8 61 -19 79 -34 52 -8 -15 -8 -34 1 -71 10 -43 9 -53 -6 -75 -36
-56 -83 -17 -72 58 11 72 -10 97 -40 51 -11 -17 -13 -29 -6 -38 5 -6 12 -38
14 -69 8 -96 55 -125 108 -68 28 30 29 30 40 10 17 -32 66 -27 85 10 21 41 19
84 -9 160 l-24 65 -12 -30z"/>
<path d="M2520 1613 c-31 -81 -38 -164 -15 -186 9 -9 23 -17 30 -17 18 0 42
36 50 75 l7 30 -20 -24 c-26 -32 -52 -22 -52 20 0 17 7 58 16 91 20 79 12 85
-16 11z"/>
<path d="M2942 1603 c-41 -90 -51 -134 -53 -221 -2 -87 16 -122 61 -122 34 0
62 34 79 95 17 63 13 73 -14 32 -26 -38 -51 -47 -73 -25 -20 20 -14 106 14
207 14 51 23 95 21 97 -2 2 -18 -26 -35 -63z"/>
<path d="M4081 1623 c-20 -11 -45 -39 -63 -70 l-30 -53 114 -1 c122 -1 174 -9
172 -24 -1 -5 -50 -37 -111 -70 -113 -62 -185 -112 -148 -102 164 44 229 70
271 109 50 46 124 152 124 178 0 29 -50 42 -175 47 -102 4 -125 2 -154 -14z"/>
<path d="M1812 1503 c-27 -64 -37 -135 -23 -162 18 -33 50 -27 67 14 19 46 18
52 -5 31 -41 -37 -54 18 -26 109 19 64 13 68 -13 8z"/>
<path d="M3675 1464 c-8 -9 -15 -30 -15 -47 0 -18 -2 -47 -6 -64 -9 -48 2 -78
33 -92 l28 -13 -39 -34 c-22 -19 -104 -73 -183 -120 -80 -47 -142 -88 -140
-91 7 -6 134 40 194 71 65 32 167 110 188 142 15 24 22 26 67 22 43 -5 51 -2
64 17 8 13 17 39 21 58 5 31 0 40 -38 82 -69 75 -140 103 -174 69z m69 -100
c9 -24 7 -54 -3 -54 -23 0 -61 21 -61 33 0 33 53 51 64 21z m78 -21 c38 -36
36 -50 -7 -45 -32 4 -35 7 -35 38 0 41 6 42 42 7z"/>
<path d="M6558 1463 c-24 -28 -35 -54 -48 -118 l-13 -60 -12 40 c-28 94 -75
144 -109 116 -40 -33 -20 -91 31 -91 19 0 28 -10 44 -47 11 -27 23 -60 26 -75
3 -16 9 -28 14 -28 9 0 33 78 45 142 9 56 25 73 54 58 18 -10 24 -9 31 1 12
20 11 32 -7 57 -18 27 -36 28 -56 5z"/>
<path d="M6241 1367 c-84 -176 -78 -368 11 -355 23 4 27 1 23 -16 -31 -155 10
-369 83 -427 37 -29 92 -25 125 9 33 34 48 78 92 261 33 135 78 261 90 249 3
-3 -1 -34 -9 -69 -44 -198 -23 -373 56 -446 80 -75 216 -68 301 15 44 42 73
93 97 171 l17 55 13 -40 c26 -82 72 -153 117 -183 98 -65 214 -43 260 49 57
113 52 222 -23 447 -51 153 -51 158 -25 143 27 -14 41 -13 41 4 0 21 -122 197
-134 193 -6 -2 -19 -26 -29 -53 -15 -38 -17 -56 -9 -79 6 -16 18 -69 26 -116
19 -103 50 -195 105 -311 47 -99 45 -119 -14 -144 -41 -17 -58 -17 -110 -3
-93 26 -131 106 -175 364 -27 160 -64 293 -89 318 -12 12 -26 -19 -43 -95 -10
-40 -8 -58 10 -122 33 -114 48 -262 33 -330 -25 -113 -107 -179 -225 -180 -73
-1 -114 23 -141 81 -30 62 -30 123 0 303 23 136 26 175 17 195 -15 33 -28 32
-63 -6 -49 -52 -95 -165 -138 -338 -44 -173 -51 -192 -84 -228 -38 -42 -95
-21 -123 45 -21 49 -29 210 -16 292 6 36 14 83 18 105 l6 40 -29 -34 c-34 -40
-57 -37 -74 6 -13 34 -5 89 27 201 14 47 23 87 20 89 -2 3 -18 -24 -35 -60z"/>
<path d="M3490 1395 c-7 -9 -20 -43 -30 -76 l-16 -61 -12 39 c-14 48 -56 96
-79 91 -10 -2 -22 -16 -27 -31 -8 -22 -6 -30 10 -42 10 -8 25 -12 31 -10 15 5
29 -18 52 -89 16 -45 19 -48 28 -31 6 11 15 43 21 70 6 28 16 63 21 78 10 24
13 26 32 16 30 -16 46 2 31 36 -13 28 -43 33 -62 10z"/>
<path d="M4397 1273 c-49 -112 -61 -208 -31 -251 31 -45 87 -6 100 68 l6 35
-24 -29 c-16 -19 -31 -27 -40 -23 -29 10 -30 58 -4 157 14 52 23 96 22 98 -2
1 -15 -24 -29 -55z"/>
<path d="M5315 1270 c-14 -27 -25 -55 -25 -62 1 -13 103 -88 120 -88 10 0 60
92 60 109 0 9 -112 91 -124 91 -3 0 -17 -22 -31 -50z"/>
<path d="M7865 1271 c-14 -28 -25 -56 -25 -63 1 -13 103 -88 121 -88 5 0 22
25 37 56 l27 56 -29 23 c-15 12 -46 32 -67 44 l-38 22 -26 -50z"/>
<path d="M759 1197 c-25 -19 -48 -71 -68 -154 l-18 -78 -13 45 c-17 64 -45
115 -76 139 -40 31 -61 27 -84 -19 l-21 -40 28 -26 c18 -17 34 -23 49 -20 12
3 26 0 31 -7 14 -18 52 -117 59 -154 13 -66 35 -34 64 94 34 146 48 166 92
126 17 -15 20 -15 28 -3 17 26 11 66 -13 88 -26 25 -35 26 -58 9z"/>
<path d="M5935 1184 c-75 -39 -125 -123 -125 -211 0 -93 61 -133 201 -133 63
0 115 -21 124 -51 7 -20 -1 -31 -49 -74 -133 -119 -428 -277 -868 -465 -158
-67 -286 -126 -283 -130 8 -12 157 17 470 94 172 42 164 39 319 125 69 39 128
71 130 71 2 0 -7 -30 -21 -67 -32 -87 -30 -198 3 -220 20 -13 24 -12 48 9 17
15 29 37 32 63 6 39 6 40 -10 18 -10 -13 -26 -23 -36 -23 -37 0 -38 74 -3 188
16 48 24 58 93 106 168 118 222 209 224 376 1 77 -3 106 -22 155 -30 79 -81
148 -125 168 -43 21 -64 21 -102 1z m75 -153 c19 -16 32 -32 28 -36 -13 -13
-115 -10 -132 4 -19 16 -21 47 -3 54 33 14 75 5 107 -22z"/>
<path d="M4071 1149 c-10 -17 -24 -50 -30 -72 -6 -23 -16 -62 -22 -87 l-12
-45 -12 45 c-17 64 -39 103 -76 134 -40 34 -59 30 -84 -16 l-20 -37 25 -26
c19 -20 32 -25 51 -21 24 5 29 0 52 -52 14 -31 31 -79 38 -105 10 -41 14 -46
25 -35 8 7 21 45 30 83 42 182 55 205 93 171 10 -9 22 -16 28 -16 19 0 24 49
8 80 -22 43 -68 42 -94 -1z"/>
<path d="M6862 1103 c-18 -33 -42 -133 -42 -178 0 -50 23 -85 56 -85 20 0 29
9 44 43 11 23 20 51 20 62 -1 17 -3 16 -18 -7 -17 -28 -45 -37 -57 -18 -11 17
-8 97 5 135 6 19 10 43 8 52 -3 16 -5 15 -16 -4z"/>
<path d="M2905 828 c-44 -95 -42 -208 3 -208 26 0 48 28 57 70 l8 35 -20 -24
c-14 -17 -25 -22 -38 -17 -15 5 -17 14 -11 60 3 29 12 72 20 94 21 58 10 52
-19 -10z"/>
<path d="M5896 773 c-7 -16 -17 -44 -21 -63 l-8 -35 -11 32 c-12 35 -40 73
-55 73 -15 0 -33 -29 -27 -45 3 -8 16 -19 30 -25 15 -5 28 -22 36 -47 19 -57
27 -60 39 -12 21 86 26 94 49 92 17 -2 22 2 22 21 0 20 -16 36 -36 36 -2 0
-10 -12 -18 -27z"/>
<path d="M622 718 c-44 -95 -57 -212 -26 -242 18 -19 20 -19 45 -5 19 10 28
25 44 79 l7 25 -25 -24 c-17 -15 -32 -21 -43 -17 -14 5 -16 16 -11 69 3 34 13
82 22 106 20 58 13 63 -13 9z"/>
<path d="M2405 690 c-14 -27 -25 -53 -25 -57 0 -11 106 -83 122 -83 16 0 58
71 58 98 0 20 -93 92 -117 92 -7 0 -24 -22 -38 -50z"/>
<path d="M2212 677 c-43 -114 -37 -197 13 -197 20 0 29 8 41 35 20 49 18 63
-7 36 -16 -17 -24 -20 -35 -10 -19 16 -18 56 5 128 23 75 10 81 -17 8z"/>
<path d="M1884 672 c-6 -4 -16 -17 -23 -29 -11 -22 -10 -23 31 -17 71 8 79 -7
31 -59 -77 -84 -95 -152 -48 -183 47 -31 183 0 226 52 13 16 12 17 -15 10 -92
-23 -170 -27 -196 -11 -18 11 -10 41 16 66 50 45 104 121 104 144 0 12 -7 26
-16 29 -22 8 -97 7 -110 -2z"/>
<path d="M7590 630 c-24 -46 -40 -157 -28 -189 5 -14 16 -21 33 -21 20 0 29 8
41 35 20 48 17 65 -5 35 -16 -20 -21 -22 -35 -11 -21 17 -20 41 3 124 10 37
17 67 15 67 -2 0 -13 -18 -24 -40z"/>
<path d="M3570 598 c-27 -62 -37 -156 -21 -186 24 -45 70 -17 85 53 l7 30 -19
-24 c-46 -58 -68 12 -36 118 20 70 12 75 -16 9z"/>
<path d="M7114 598 c-55 -106 -72 -248 -35 -282 37 -33 77 0 95 79 l7 30 -26
-27 c-32 -35 -42 -35 -57 -3 -12 27 -3 95 26 188 17 54 14 61 -10 15z"/>
<path d="M6580 558 c-25 -56 -37 -140 -26 -183 10 -40 53 -35 72 10 20 48 18
61 -6 34 -20 -24 -20 -24 -35 -5 -19 25 -19 27 4 116 11 41 18 76 17 78 -2 1
-14 -21 -26 -50z"/>
<path d="M5016 540 c-44 -98 -55 -209 -24 -247 17 -21 56 -15 73 11 9 13 18
41 21 62 l5 39 -16 -28 c-11 -20 -23 -27 -38 -25 -20 3 -22 8 -21 68 0 36 9
89 18 118 25 74 14 75 -18 2z"/>
<path d="M1452 568 c-38 -24 -92 -103 -92 -135 0 -23 31 -63 50 -63 6 0 -4
-24 -20 -54 -17 -30 -33 -76 -36 -102 -5 -43 -3 -52 20 -73 46 -43 176 -28
255 30 24 17 41 32 38 35 -2 2 -33 -2 -68 -11 -94 -22 -181 -20 -204 5 -17 18
-16 21 9 64 14 24 55 71 91 104 88 81 122 172 38 103 -40 -33 -78 -39 -108
-17 -18 13 -18 15 -2 40 20 30 30 32 50 11 13 -13 17 -11 32 11 17 26 13 59
-9 67 -7 3 -27 -4 -44 -15z"/>
<path d="M1701 522 c-28 -56 -41 -173 -21 -197 7 -8 21 -15 31 -15 20 0 49 47
49 77 -1 17 -1 17 -15 -1 -40 -53 -60 32 -30 129 8 27 13 50 12 52 -2 1 -14
-19 -26 -45z"/>
<path d="M4650 498 c-43 -29 -88 -113 -74 -136 6 -10 20 -21 31 -26 21 -10 21
-10 -4 -43 -32 -41 -24 -52 15 -24 16 11 63 36 103 56 77 36 99 56 99 87 0 17
-2 18 -30 3 -65 -33 -170 -27 -170 10 0 22 40 35 68 22 28 -13 33 -7 35 35 2
42 -25 48 -73 16z"/>
<path d="M6152 494 c-33 -26 -72 -90 -72 -118 0 -8 12 -24 26 -35 l26 -21 -26
-35 c-15 -19 -26 -35 -24 -35 19 0 226 118 235 134 22 38 16 48 -18 31 -66
-35 -169 -28 -169 11 0 19 40 34 62 23 23 -12 26 -12 38 11 15 29 3 60 -23 60
-12 0 -37 -12 -55 -26z"/>
<path d="M7995 476 c-48 -48 -70 -111 -44 -127 43 -26 43 -26 15 -59 -15 -18
-25 -34 -23 -37 3 -2 42 17 87 42 46 25 94 48 107 51 21 6 53 49 53 72 0 5
-26 0 -59 -12 -47 -16 -66 -18 -97 -11 -44 11 -56 38 -25 55 15 8 27 8 41 0
28 -15 40 -5 40 36 0 30 -3 34 -25 34 -17 0 -41 -15 -70 -44z"/>
<path d="M7405 470 c-8 -16 -15 -38 -15 -49 0 -11 -4 -23 -10 -26 -5 -3 -10 3
-10 14 0 11 -11 33 -24 48 -20 23 -28 26 -43 17 -26 -16 -22 -37 9 -52 17 -8
33 -28 44 -57 9 -25 20 -42 25 -40 4 3 13 29 19 58 14 69 24 85 43 69 12 -10
16 -9 21 4 7 19 -10 44 -30 44 -7 0 -20 -13 -29 -30z"/>
<path d="M1142 403 c-53 -103 -69 -236 -32 -273 11 -11 25 -20 30 -20 20 0 49
40 60 80 13 49 9 60 -10 25 -16 -31 -45 -32 -61 -4 -12 24 0 104 27 181 19 54
11 60 -14 11z"/>
<path d="M3012 403 c-46 -89 -66 -218 -42 -264 7 -12 21 -19 41 -19 26 0 33 6
49 42 30 65 26 85 -7 48 -21 -22 -32 -28 -43 -20 -21 13 -17 99 9 180 24 75
21 88 -7 33z"/>
<path d="M4355 386 c-65 -147 -56 -287 17 -268 21 5 58 72 58 107 -1 17 -3 16
-18 -7 -21 -36 -49 -36 -63 -1 -10 28 1 101 27 176 22 62 7 57 -21 -7z"/>
<path d="M2065 319 c-143 -61 -265 -116 -272 -121 -12 -10 -28 -66 -21 -74 3
-2 56 20 119 50 63 29 184 84 269 121 85 37 161 74 168 83 13 17 17 52 5 52
-5 -1 -125 -51 -268 -111z"/>
<path d="M3585 319 c-143 -61 -265 -116 -271 -122 -16 -16 -35 -77 -25 -77 5
0 64 26 132 58 68 32 189 87 269 122 80 35 148 66 152 69 11 10 21 61 12 61
-5 0 -126 -50 -269 -111z"/>
<path d="M6705 331 c-311 -132 -306 -129 -321 -173 -7 -21 -10 -38 -5 -38 4 0
85 36 181 80 95 45 216 99 269 121 53 23 99 44 103 47 11 11 21 62 12 62 -5
-1 -113 -45 -239 -99z"/>
<path d="M7705 404 c-33 -14 -150 -64 -260 -111 -110 -46 -205 -90 -211 -96
-15 -16 -35 -77 -26 -77 4 0 89 37 187 83 99 46 221 101 272 123 86 37 113 59
113 94 0 14 -8 12 -75 -16z"/>
<path d="M4716 261 c-81 -38 -152 -73 -156 -78 -11 -12 -22 -63 -13 -63 5 1
80 38 168 83 128 65 161 87 163 105 2 12 0 22 -5 22 -4 -1 -75 -32 -157 -69z"/>
<path d="M6235 265 c-77 -35 -147 -68 -156 -74 -16 -9 -35 -59 -26 -67 6 -7
320 154 329 168 10 16 10 38 1 38 -5 0 -71 -29 -148 -65z"/>
<path d="M8073 257 c-136 -63 -153 -74 -159 -100 -3 -15 -4 -30 -2 -32 6 -6
321 154 330 168 12 18 10 37 -4 36 -7 -1 -81 -33 -165 -72z"/>
<path d="M3851 261 l-31 -60 59 -41 c33 -22 64 -40 69 -40 5 0 15 12 22 28 28
54 29 54 81 17 27 -19 55 -35 62 -35 21 0 69 101 56 116 -15 18 -104 74 -118
74 -6 0 -19 -17 -28 -37 -10 -21 -18 -40 -20 -42 -1 -1 -17 8 -35 22 -18 13
-45 32 -60 41 l-27 18 -30 -61z"/>
<path d="M6973 288 c-6 -7 -16 -33 -23 -57 l-12 -44 -18 40 c-23 53 -55 72
-70 43 -13 -24 -6 -38 25 -50 15 -6 28 -24 37 -52 8 -24 19 -42 24 -41 5 1 15
28 22 60 15 68 25 81 47 63 15 -12 16 -11 13 15 -3 32 -28 44 -45 23z"/>
<path d="M7792 273 c-6 -15 -14 -41 -18 -56 l-7 -28 -17 38 c-9 21 -25 44 -34
52 -15 12 -19 12 -33 -2 -20 -20 -11 -45 21 -57 15 -5 28 -22 36 -47 19 -57
27 -60 40 -12 22 87 26 94 49 91 18 -2 22 2 19 20 -5 35 -43 36 -56 1z"/>
</g>
</svg>
